<svg width="24" height="24" viewBox="0 0 24 24" fill="none" xmlns="http://www.w3.org/2000/svg">
<path d="M24 12C24 18.6274 19.3774 22.5 12.75 22.5C6.12258 22.5 0 18.6274 0 12C0 5.37258 6.12258 0.75 12.75 0.75C19.3774 0.75 24 5.37258 24 12Z" fill="url(#paint0_linear_74026_644)"/>
<path d="M9 15.75C9.77206 16.8528 11.0625 18.75 14.25 18.75C17.625 18.75 19.1691 16.6322 19.5 15.75" stroke="#191A20" stroke-width="1.5" stroke-linecap="round"/>
<path d="M17.25 9.02765C17.6749 10.2011 19.1537 11.1581 20.3982 11.0651" stroke="#191A20" stroke-width="1.5" stroke-linecap="round"/>
<path d="M11.3984 9.02765C10.9735 10.2011 9.49479 11.1581 8.25024 11.0651" stroke="#191A20" stroke-width="1.5" stroke-linecap="round"/>
<defs>
<linearGradient id="paint0_linear_74026_644" x1="12" y1="0" x2="12" y2="24" gradientUnits="userSpaceOnUse">
<stop stop-color="#FCCDEE"/>
<stop offset="1" stop-color="#F991E0"/>
</linearGradient>
</defs>
</svg>
