<svg width="44" height="41" viewBox="0 0 44 41" fill="none" xmlns="http://www.w3.org/2000/svg">
<path d="M23.25 1C29.0115 1 33.9623 3.01307 37.4746 6.52539C40.9869 10.0377 43 14.9885 43 20.75C43 26.5186 40.9803 31.1767 37.4385 34.3838C33.909 37.5797 28.9629 39.25 23.25 39.25C17.5447 39.25 12.0098 37.5849 7.87695 34.4375C3.72357 31.2744 1 26.617 1 20.75C1 8.9968 11.8212 1 23.25 1Z" stroke="#9FABCD" stroke-width="2"/>
<path d="M17 27C18.2868 28.838 20.4375 32 25.75 32C31.375 32 33.9485 28.4704 34.5 27" stroke="#9FABCD" stroke-width="2" stroke-linecap="round"/>
<path d="M30.75 15.7959C31.4582 17.7517 33.9228 19.3467 35.997 19.1917" stroke="#9FABCD" stroke-width="2" stroke-linecap="round"/>
<path d="M20.9971 15.7959C20.2889 17.7517 17.8243 19.3467 15.7501 19.1917" stroke="#9FABCD" stroke-width="2" stroke-linecap="round"/>
</svg>
