<svg width="41" height="44" viewBox="0 0 41 44" fill="none" xmlns="http://www.w3.org/2000/svg">
<path d="M20.75 1C30.1423 1 39.25 10.4965 39.25 22C39.25 27.709 37.5826 32.948 34.4131 36.7793C31.2276 40.6298 26.5689 43 20.75 43C9.06894 43 1 33.5111 1 22C1 16.1702 3.63687 10.927 7.38379 7.15332C11.1201 3.39049 16.0506 1 20.75 1Z" stroke="#9FABCD" stroke-width="2"/>
<path d="M10.75 29.5C11.7917 27.2083 13.5939 23.25 17.625 23.25C21.375 23.25 23.875 27.625 24.5 29.5" stroke="#9FABCD" stroke-width="2" stroke-linecap="round"/>
<path d="M23.25 18.25L29.5 14.5" stroke="#9FABCD" stroke-width="2" stroke-linecap="round"/>
<path d="M7 14.5L13.25 18.25" stroke="#9FABCD" stroke-width="2" stroke-linecap="round"/>
</svg>
