<svg width="152" height="151" viewBox="0 0 152 151" fill="none" xmlns="http://www.w3.org/2000/svg">
<circle cx="78" cy="70" r="65" fill="white"/>
<circle cx="42.674" cy="61.5218" r="42.3913" fill="#BAC6E9"/>
<path d="M42.6741 54.3958C45.2108 54.6483 49.3395 55.6844 50.5173 57.2602" stroke="#191A20" stroke-width="2.36364" stroke-linecap="round"/>
<path d="M21.0108 47.2615C21.0108 47.2615 17.0125 45.3004 16.0236 45.6718C14.6128 46.2017 13.53 49.381 13.53 49.381" stroke="#191A20" stroke-width="2.36364" stroke-linecap="round"/>
<path d="M18.8288 77.3303C20.9911 76.9315 25.9216 76.246 28.3452 76.6939C31.3747 77.2537 33.4773 79.4385 37.2196 79.5314C40.2135 79.6056 44.2174 77.8309 45.8452 76.9342" stroke="#191A20" stroke-width="2.36364" stroke-linecap="round"/>
<circle cx="17.9522" cy="57.9956" r="1.77273" fill="#191A20"/>
<circle cx="43.1365" cy="61.1363" r="1.77273" fill="#191A20"/>
<path d="M68.11 17.4572C68.8411 15.4677 70.2354 13.722 72.8881 14.6968C75.5407 15.6716 74.5659 18.3243 74.3222 18.9874C73.3473 21.6401 68.6373 22.1673 67.9061 24.1568C67.5162 25.2178 67.6624 24.8199 67.4187 25.4831M65.859 29.7273L65.9565 29.4621" stroke="#191A20" stroke-width="2.36364" stroke-linecap="round"/>
<circle cx="42.3913" cy="42.3913" r="42.3913" transform="matrix(-1 0 0 1 151.478 51.6304)" fill="#D9E2FF"/>
<path d="M126.806 85.5474C126.806 85.5474 131.194 81.0836 132.679 81.1153C134.797 81.1606 137.714 84.8722 137.714 84.8722" stroke="#191A20" stroke-width="2.36364" stroke-linecap="round"/>
<path d="M111.343 85.9245C111.343 85.9245 105.984 82.6891 104.554 83.0881C102.514 83.6574 100.609 87.9767 100.609 87.9767" stroke="#191A20" stroke-width="2.36364" stroke-linecap="round"/>
<path d="M134.394 99.6738C132.824 104.513 130.108 112.872 122.275 113.64C114.987 114.355 109.261 105.972 107.674 102.294L134.394 99.6738Z" fill="#191A20" stroke="#191A20" stroke-width="2.11957" stroke-linecap="round" stroke-linejoin="round"/>
<path d="M51.1521 127.935C57.5109 127.935 59.6304 115.217 59.6304 115.217C59.6304 115.217 61.7499 127.935 68.1086 127.935C61.7499 127.935 59.6304 140.652 59.6304 140.652C59.6304 140.652 57.5108 127.935 51.1521 127.935Z" stroke="#191A20" stroke-width="2.36364" stroke-linecap="round" stroke-linejoin="round"/>
<path d="M69.5217 142.065C72.7011 142.065 73.7609 135 73.7609 135C73.7609 135 74.8206 142.065 78 142.065C74.8206 142.065 73.7609 149.13 73.7609 149.13C73.7609 149.13 72.7011 142.065 69.5217 142.065Z" stroke="#191A20" stroke-width="2.36364" stroke-linecap="round" stroke-linejoin="round"/>
<path d="M56.8044 6.41296C56.8044 4.29339 57.511 2.17383 60.3371 2.17383C63.1631 2.17383 63.1631 4.99992 63.1631 5.70644C63.1631 8.53252 58.924 10.6521 58.924 12.7717C58.924 13.9021 58.924 13.4782 58.924 14.1847M58.924 18.7064V18.4238" stroke="#191A20" stroke-width="2.36364" stroke-linecap="round"/>
</svg>
