<svg width="43" height="44" viewBox="0 0 43 44" fill="none" xmlns="http://www.w3.org/2000/svg">
<path d="M22 1C27.7129 1 32.659 2.6703 36.1885 5.86621C39.7303 9.07334 41.75 13.7314 41.75 19.5C41.75 25.1948 40.1422 31.0387 36.8682 35.4854C33.5734 39.9602 28.5982 43 22 43C8.76107 43 1 30.8907 1 19.5C1 13.6811 3.37025 9.02245 7.2207 5.83691C11.052 2.66742 16.291 1 22 1Z" stroke="#9FABCD" stroke-width="2"/>
<path d="M32 23.25C30.9583 25.5417 29.1561 29.5 25.125 29.5C21.375 29.5 18.875 25.125 18.25 23.25L32 23.25Z" fill="#9FABCD" stroke="#9FABCD" stroke-width="2" stroke-linecap="round" stroke-linejoin="round"/>
<path d="M30.75 14.0874L34.8154 18.1254" stroke="#9FABCD" stroke-width="2" stroke-linecap="round"/>
<path d="M18.5657 14.0874L14.5002 18.1254" stroke="#9FABCD" stroke-width="2" stroke-linecap="round"/>
</svg>
