<svg width="44" height="44" viewBox="0 0 44 44" fill="none" xmlns="http://www.w3.org/2000/svg">
<path d="M22 1C27.9216 1 33.183 4.4003 36.9248 9.11133C40.6686 13.8249 43 19.977 43 25.75C43 31.5802 40.6186 35.9444 36.7373 38.8203C32.8941 41.668 27.6625 43 22 43C16.3375 43 11.1059 41.668 7.2627 38.8203C3.38142 35.9444 1 31.5802 1 25.75C1 19.977 3.33139 13.8249 7.0752 9.11133C10.817 4.4003 16.0784 1 22 1Z" stroke="#9FABCD" stroke-width="2"/>
<path d="M25.75 32.0977C24.6471 30.7192 21.3067 28.0449 16.7689 28.3757C12.2311 28.7066 11.2227 30.9949 10.75 32.0977" stroke="#9FABCD" stroke-width="2" stroke-linecap="round"/>
<path d="M12.2827 16.3486C11.9605 18.1443 10.0664 19.8886 8.25034 20.0621" stroke="#9FABCD" stroke-width="2" stroke-linecap="round"/>
<path d="M22.5029 15.9795C22.6202 17.8001 24.305 19.7472 26.0899 20.1248" stroke="#9FABCD" stroke-width="2" stroke-linecap="round"/>
<path d="M29.5 25.75C29.5 26.7855 28.6605 27.625 27.625 27.625C26.5895 27.625 25.75 26.7855 25.75 25.75C25.75 24.7145 27.625 22 27.625 22C27.625 22 29.5 24.7145 29.5 25.75Z" fill="#9FABCD"/>
</svg>
