<svg width="32" height="32" viewBox="0 0 32 32" fill="none" xmlns="http://www.w3.org/2000/svg">
<path d="M32 19C32 27.8366 24.8366 32 16 32C7.16344 32 0 27.8366 0 19C0 10.1634 7.16344 0 16 0C24.8366 0 32 10.1634 32 19Z" fill="url(#paint0_linear_74026_609)"/>
<path d="M19 24.0781C18.1176 22.9753 15.4454 20.8359 11.8151 21.1006C8.18487 21.3653 7.37815 23.1959 7 24.0781" stroke="#191A20" stroke-width="1.5" stroke-linecap="round"/>
<path d="M8.22607 11.479C7.96831 12.9156 6.45306 14.311 5.00017 14.4498" stroke="#191A20" stroke-width="1.5" stroke-linecap="round"/>
<path d="M16.4023 11.1836C16.4962 12.6401 17.844 14.1978 19.2719 14.4999" stroke="#191A20" stroke-width="1.5" stroke-linecap="round"/>
<path d="M22 19C22 19.8284 21.3284 20.5 20.5 20.5C19.6716 20.5 19 19.8284 19 19C19 18.1716 20.5 16 20.5 16C20.5 16 22 18.1716 22 19Z" fill="#DFEEFC"/>
<defs>
<linearGradient id="paint0_linear_74026_609" x1="16" y1="0" x2="16" y2="32" gradientUnits="userSpaceOnUse">
<stop stop-color="#7BBCFA"/>
<stop offset="1" stop-color="#2993F7"/>
</linearGradient>
</defs>
</svg>
